<svg xmlns="http://www.w3.org/2000/svg" width="108" height="46" fill="none" viewBox="0 0 108 46">
  <path fill="#fff" d="M97.724 24.36c.427-.177.987-.013 1.25.484.227.504-.056 1.061-.352 1.392-.466.59-1.354.046-1.38-.767-.057-.458.136-.955.481-1.109Zm-78.289-7.382a9.03 9.03 0 0 0-1.408 2.868c.276-.093.501-.333.74-.523.73-.614 1.349-1.415 1.965-2.206.268-.37.545-.818.533-1.353-.714-.01-1.34.592-1.83 1.214Zm-.464-2.36c.632-.554 1.36-1.01 2.137-1.03.665-.018 1.358.45 1.63 1.26.236.651.228 1.423.005 2.078-.351 1.078-1.004 1.925-1.671 2.686-1.01 1.134-2.16 2.082-3.44 2.605.014.799-.062 1.684.329 2.367.338.484.921.546 1.373.329.604-.358 1.21-.737 1.729-1.283 1.492-1.524 2.814-3.31 4.08-5.14.653-.942 1.224-1.986 1.963-2.824.218-.258.568-.43.839-.206.254.215.235.672.15 1.003-.156.624-.443 1.177-.738 1.705-1.537 2.654-3.278 5.117-5.228 7.269-.975 1.031-2.105 2.039-3.413 2.056-.715.05-1.402-.372-1.926-.978-.788-1.1-1.15-2.63-1.117-4.115-.212-.072-.44-.167-.566-.417-.2-.348-.077-.839.137-1.122.202-.143.439-.171.658-.253.163-.537.274-1.1.45-1.63.56-1.71 1.445-3.275 2.619-4.36Zm49.152-.523c.208-.4.435-.848.81-1.003.365-.15.867.061.968.584.075.302-.046.596-.16.85a24.31 24.31 0 0 0-.801 1.963c-1.048 2.474-2.06 4.975-3.095 7.458-.445 1.005-.85 2.075-1.504 2.887-.358.466-.891.68-1.389.608-.667-.16-1.018-1.006-1.195-1.775-.245-1.117-.297-2.284-.387-3.434-.643 1.436-1.34 2.862-2.277 4.008-.522.628-1.207 1.196-1.952 1.022-.65-.106-1.077-.865-1.277-1.614-.331-1.08-.281-2.258-.283-3.397.014-1.55.039-3.1.07-4.649l-.03-.357c-.238.14-.387.433-.563.67-1.013 1.525-1.841 3.237-2.617 4.975-.629 1.398-1.177 2.855-1.824 4.24-.264.49-.63 1.037-1.135 1.016-.55.012-1.032-.562-1.132-1.245-.062-1.465.145-2.92.407-4.339.393-2.09.936-4.126 1.487-6.152.174-.626.345-1.254.55-1.864.235-.754 1.136-.966 1.534-.313.316.44.218 1.095.119 1.621-.305 1.49-.711 2.94-1 4.436.786-1.454 1.561-2.929 2.488-4.242.38-.523.825-.98 1.328-1.287.405-.24.902-.226 1.28.092.49.383.733 1.114.834 1.816.16 1.124.106 2.274.1 3.412-.017 1.584-.165 3.208.135 4.762.089-.055.182-.105.26-.187.64-.697 1.135-1.58 1.624-2.448.648-1.184 1.266-2.405 1.756-3.711.136-.867.041-1.79.266-2.64.106-.284.274-.542.481-.713.411-.102.912.123 1.075.658.164.572.153 1.196.184 1.797a74.88 74.88 0 0 0 .216 3.608c.07.848.082 1.707.219 2.543.43-.715.746-1.529 1.107-2.3 1.125-2.44 2.136-4.966 3.323-7.356Zm5.223-6.663c.615-.175 1.18.676 1.036 1.445-.082.416-.294.92-.67.93-.582-.073-1.037-.848-.928-1.598.041-.378.279-.69.562-.777ZM46.997 4.865c2.036-.427 4.08-1.051 6.158-.867.59.05 1.253.295 1.572 1 .3.575-.024 1.457-.54 1.563-.302-.035-.352-.548-.644-.61-.47-.145-.957-.062-1.433-.022-1.66.202-3.314.53-4.93 1.06-.29.046-.238.506-.302.781-.232 2.118-.583 4.21-.794 6.332-.335 2.955-.588 5.923-.862 8.888-.101 1.234-.34 2.476-.183 3.72.084.852-.017 1.705-.146 2.539.61-.052 1.204-.258 1.806-.395a25.296 25.296 0 0 1 3.18-.5c.45-.014.925-.024 1.344.222.227.14.448.515.272.832-.28.442-.691.755-1.127.86-.818.245-1.653.373-2.471.62-1.783.443-3.567.899-5.311 1.56-.547.22-1.112.409-1.609.79-.256.17-.338.606-.622.72-.584.224-1.244-.475-1.171-1.265.066-.682.513-1.142.925-1.498.92-.785 2.028-.993 3.05-1.453-.208-2.557.008-5.132.163-7.685.108-2.07.378-4.12.64-6.165.361-2.805.845-5.58 1.298-8.36-3.368.817-6.484 2.773-9.79 3.885-.692.186-1.458.462-2.131.05-.48-.285-.607-1.148-.339-1.703a1.37 1.37 0 0 1 .793-.717c1.055-.378 2.162-.366 3.246-.46 2.685-1.155 5.34-2.48 8.122-3.196.248-.093.583-.06.718-.403.224-.484.86-.64 1.118-.123ZM12.482 3.117c.208-.314.56-.533.877-.382.422.216.72.767.759 1.35.032.544.027 1.09.032 1.636 1.044-.036 2.087-.143 3.13-.198 1.113-.125 2.225-.285 3.344-.343.954-.045 1.94-.214 2.871.154.24.063.399.51.205.752-.254.371-.645.485-.991.647-.741.345-1.534.381-2.31.47-1.543.135-3.084.312-4.626.466-.57.061-1.143.08-1.71.19-.65 7.958-.977 15.955-1.227 23.949.003.56-.164 1.231-.614 1.425-.376.212-.839-.071-.98-.558-.313-1.12-.234-2.328-.244-3.496.008-1.759-.016-3.518.017-5.275.164-4.622.322-9.248.706-13.85.053-.688.132-1.371.168-2.06-1.761.098-3.524.111-5.287.102-.846.02-1.692-.068-2.533-.175-.91-.135-1.847-.28-2.68-.809-.311-.224-.662-.459-.815-.9-.177-.49-.03-1.186.38-1.385.569-.335 1.278-.366 1.825.053.175.139.314.374.241.654.432.217.906.167 1.357.245.424.034.843.157 1.27.149 1.648-.01 3.297.01 4.946-.014.505-.015 1.011-.009 1.514-.078-.028-.568.093-1.12.143-1.68.046-.352.043-.752.232-1.039Zm76.85 13.34c-.846.875-1.476 2.085-1.861 3.393.968-.545 1.746-1.52 2.495-2.462.35-.435.722-.942.757-1.604-.516-.092-.981.32-1.39.673ZM82.836-.128a24.045 24.045 0 0 0-1.024 3.108 45.099 45.099 0 0 0-1.047 5.184c.154-.237.246-.525.35-.8.295-.802.57-1.615.844-2.43.538-1.58.92-3.24 1.25-4.912.08-.414.155-.835.151-1.265-.23.325-.365.733-.524 1.115Zm-.396-2.885c.351-.527.83-1.034 1.4-.983.407.017.784.361.933.854.222.712.233 1.507.15 2.26-.367 2.983-1.16 5.847-2.093 8.605-.162.505-.365.988-.506 1.504 1.365-.18 2.71-.527 4.06-.826 2.035-.455 4.057-1.122 6.132-1.157.284-.021.58.264.593.643-.056.37-.35.527-.588.66.16.707-.257 1.29-.64 1.706-.488.493-1.024.896-1.544 1.326-.45.338-.896.727-1.407.887-.396.136-.883-.293-.83-.855.031-.462.31-.822.599-1.059.349-.325.692-.662 1.04-.99-2.75.729-5.526 1.285-8.276 2.012-.282.478-.444 1.043-.67 1.562-.245.611-.515 1.206-.755 1.82-.16.398-.148.858-.18 1.292-.118 1.892-.204 3.803-.023 5.693.1 1.012.292 2.038.73 2.9.165.325.464.622.78.48.764-.307 1.31-1.104 1.853-1.822.358-.505.692-1.04 1.017-1.58.143-.217.238-.473.313-.738.07-.333.367-.42.481-.715.269-.546.648-1 .83-1.613.449-1.347 1.113-2.576 1.941-3.575.64-.757 1.406-1.367 2.256-1.617.591-.176 1.258-.048 1.73.47.564.619.729 1.72.477 2.603-.267.965-.8 1.76-1.367 2.454-1.091 1.326-2.366 2.441-3.8 3.03.02.717-.06 1.49.224 2.144.186.521.676.712 1.088.66.313-.008.584-.23.86-.395 1.135-.674 2.038-1.823 2.946-2.902a50.396 50.396 0 0 0 3.257-4.555c.382-.57.756-1.163 1.22-1.625.265-.263.68-.263.88.115-.027-1.281.06-2.56.057-3.84-.002-1.245.135-2.48.15-3.722.064-1.896.078-3.795.119-5.692-.011-.769.88-1.018 1.162-.382.366.76.388 1.692.446 2.558.046 2.275-.017 4.55-.081 6.824-.055 2.286-.255 4.561-.412 6.838-.027.503-.322 1.004-.734 1.007-.348-.06-.662-.45-.69-.913-.043-.624-.01-1.253-.02-1.879-.2.721-.537 1.36-.895 1.964-1.029 1.747-2.14 3.415-3.35 4.955-.985 1.238-1.984 2.496-3.185 3.38-.82.6-1.807.927-2.736.619-.567-.263-1.123-.677-1.455-1.348a6.96 6.96 0 0 1-.74-2.316c-.597.94-1.23 1.852-1.952 2.631-.62.565-1.34 1.065-2.116 1.051-.81-.041-1.504-.761-1.92-1.621-.748-1.538-.978-3.378-1.11-5.157a30.725 30.725 0 0 1-2.493 3.865c-.662.885-1.39 1.732-2.272 2.226-.809.44-1.817.457-2.544-.241-.603-.598-.958-1.531-1.114-2.477-.283-1.674-.138-3.435.303-5.04.24-.896.499-1.787.843-2.625.179-.426.41-.873.782-1.036.62-.28 1.313.565 1.174 1.383-.099.548-.32 1.04-.479 1.56-.522 1.588-.969 3.296-.835 5.047.046.55.152 1.18.534 1.503.344.246.74-.001 1.059-.205.965-.684 1.755-1.705 2.508-2.729.9-1.233 1.671-2.608 2.443-3.976.1-.274.065-.594.097-.889.056-1.632.359-3.227.474-4.849-1.56.268-3.122.545-4.696.618-.826.019-1.729.058-2.453-.542-.433-.337-.572-1.199-.22-1.69.306-.365.763-.415 1.159-.364.393.03.618.61 1.031.55 1.633-.057 3.259-.3 4.876-.59.193-.057.416-.044.583-.192.255-1.288.426-2.599.67-3.89.373-1.998.82-3.981 1.463-5.864.39-1.128.848-2.228 1.458-3.183ZM9.665 40v-3.21H8.57v-.485h2.69v.485h-1.095V40h-.5Zm4.625 0h-.545l-.375-.96h-1.405l-.375.96h-.545l1.495-3.695h.27L14.29 40Zm-1.09-1.43-.53-1.395-.535 1.395H13.2ZM17.404 40h-.614l-.96-1.5h-.51V40h-.5v-3.695h1.255c.37 0 .655.11.855.33.203.213.305.47.305.77 0 .25-.077.473-.23.67-.15.197-.36.325-.63.385l1.03 1.54Zm-1.325-3.22h-.76v1.25h.66c.24 0 .424-.058.55-.175a.583.583 0 0 0 .195-.455.602.602 0 0 0-.17-.445c-.113-.117-.271-.175-.474-.175Zm2.604 3.28c-.43 0-.784-.158-1.06-.475l.305-.365c.2.243.451.365.755.365.223 0 .401-.07.535-.21.133-.143.2-.343.2-.6v-2.47h.5V38.8c0 .4-.115.71-.345.93-.224.22-.52.33-.89.33ZM23.11 40h-2.3v-3.695h2.3v.475h-1.8v1.105h1.665v.475H21.31v1.165h1.8V40Zm1.447 0v-3.21h-1.095v-.485h2.69v.485h-1.095V40h-.5Zm4.625 0h-.545l-.375-.96h-1.405l-.375.96h-.545l1.495-3.695h.27L29.183 40Zm-1.09-1.43-.53-1.395-.535 1.395h1.065Zm2.456 1.49a1.48 1.48 0 0 1-.75-.195 1.292 1.292 0 0 1-.51-.565l.37-.305c.2.393.495.59.885.59.207 0 .372-.053.495-.16a.507.507 0 0 0 .185-.4c0-.197-.128-.368-.385-.515a24.601 24.601 0 0 0-.38-.18 4.297 4.297 0 0 1-.415-.21c-.37-.233-.555-.527-.555-.88 0-.283.102-.52.305-.71.204-.193.474-.29.81-.29.46 0 .822.182 1.085.545l-.335.32c-.2-.263-.448-.395-.745-.395-.17 0-.31.047-.42.14a.442.442 0 0 0-.165.36c0 .193.105.352.315.475.087.053.23.127.43.22.21.1.365.178.465.235.357.217.535.503.535.86a.945.945 0 0 1-.35.765c-.233.197-.523.295-.87.295Zm4.453-.06h-1.325v-3.695h1.375c.523 0 .937.167 1.24.5.307.337.46.788.46 1.355 0 .57-.157 1.018-.47 1.345-.31.33-.737.495-1.28.495Zm-.825-3.22v2.745h.845c.377 0 .673-.128.89-.385.213-.257.32-.588.32-.995 0-.4-.107-.727-.32-.98-.217-.257-.513-.385-.89-.385h-.845Zm3.29 3.22v-3.695h.5V40h-.5Zm3.086.055c-.544 0-.995-.18-1.355-.54-.357-.363-.535-.817-.535-1.36 0-.553.186-1.01.56-1.37a1.878 1.878 0 0 1 1.36-.545 2.1 2.1 0 0 1 .87.185c.276.123.5.288.67.495l-.355.325a1.514 1.514 0 0 0-1.18-.52 1.39 1.39 0 0 0-1.01.405c-.27.27-.405.613-.405 1.03a1.377 1.377 0 0 0 1.4 1.415c.216 0 .43-.047.64-.14.21-.093.391-.22.545-.38v-.735h-1.235v-.46h1.705v1.415c-.45.52-1.009.78-1.675.78ZM42.954 40v-3.695h.5V40h-.5Zm2.13 0v-3.21H43.99v-.485h2.69v.485h-1.095V40h-.5Zm4.626 0h-.545l-.375-.96h-1.405l-.375.96h-.545l1.495-3.695h.27L49.71 40Zm-1.09-1.43-.53-1.395-.535 1.395h1.065ZM52.724 40H50.24v-3.695h.5v3.21h1.985V40Zm2.828 0h-2.3v-3.695h2.3v.475h-1.8v1.105h1.665v.475h-1.665v1.165h1.8V40Zm1.677.06a1.48 1.48 0 0 1-.75-.195 1.292 1.292 0 0 1-.51-.565l.37-.305c.2.393.495.59.885.59.207 0 .372-.053.495-.16a.507.507 0 0 0 .185-.4c0-.197-.128-.368-.385-.515a24.601 24.601 0 0 0-.38-.18 4.297 4.297 0 0 1-.415-.21c-.37-.233-.555-.527-.555-.88 0-.283.102-.52.305-.71.203-.193.473-.29.81-.29.46 0 .822.182 1.085.545l-.335.32c-.2-.263-.448-.395-.745-.395-.17 0-.31.047-.42.14a.442.442 0 0 0-.165.36c0 .193.105.352.315.475.087.053.23.127.43.22.21.1.365.178.465.235.357.217.535.503.535.86a.945.945 0 0 1-.35.765c-.233.197-.523.295-.87.295Zm5.428-.06h-2.3v-3.695h2.3v.475h-1.8v1.105h1.665v.475h-1.665v1.165h1.8V40Zm1.982 0v-3.695h.5V40h-.5Zm3.906-1.06v-2.635h.495V40h-.26l-2.216-2.62V40h-.494v-3.695h.225l2.25 2.635ZM70.67 40v-3.21h-1.095v-.485h2.69v.485H71.17V40h-.5Zm4.432 0h-2.3v-3.695h2.3v.475h-1.8v1.105h1.665v.475h-1.665v1.165h1.8V40Zm3.332 0h-.615l-.96-1.5h-.51V40h-.5v-3.695h1.255c.37 0 .655.11.855.33.203.213.305.47.305.77 0 .25-.077.473-.23.67-.15.197-.36.325-.63.385l1.03 1.54Zm-1.325-3.22h-.76v1.25h.66c.24 0 .423-.058.55-.175a.583.583 0 0 0 .195-.455.602.602 0 0 0-.17-.445c-.114-.117-.272-.175-.475-.175ZM81.893 40h-.545l-.375-.96h-1.405l-.375.96h-.545l1.495-3.695h.27L81.893 40Zm-1.09-1.43-.53-1.395-.535 1.395h1.065Zm3.157 1.485c-.533 0-.983-.177-1.35-.53-.367-.357-.55-.81-.55-1.36 0-.56.187-1.02.56-1.38a1.872 1.872 0 0 1 1.355-.545c.337 0 .647.075.93.225.283.143.505.338.665.585l-.37.31c-.313-.423-.718-.635-1.215-.635a1.36 1.36 0 0 0-1 .41c-.273.273-.41.618-.41 1.035 0 .407.133.743.4 1.01.267.263.602.395 1.005.395.247 0 .477-.055.69-.165.213-.11.397-.263.55-.46l.36.305a1.863 1.863 0 0 1-.695.585 2.02 2.02 0 0 1-.925.215ZM86.877 40v-3.21h-1.095v-.485h2.69v.485h-1.095V40h-.5Zm2.132 0v-3.695h.5V40h-.5Zm2.746-.86 1.165-2.835h.545L91.895 40h-.285l-1.595-3.695h.57l1.17 2.835Zm4.742.86h-.545l-.375-.96h-1.405l-.375.96h-.545l1.495-3.695h.27L96.497 40Zm-1.09-1.43-.53-1.395-.535 1.395h1.065Zm2.457 1.49a1.48 1.48 0 0 1-.75-.195 1.29 1.29 0 0 1-.51-.565l.37-.305c.2.393.495.59.885.59.206 0 .371-.053.495-.16a.507.507 0 0 0 .185-.4c0-.197-.129-.368-.385-.515a25.101 25.101 0 0 0-.38-.18 4.285 4.285 0 0 1-.415-.21c-.37-.233-.555-.527-.555-.88a.93.93 0 0 1 .305-.71c.203-.193.473-.29.81-.29.46 0 .821.182 1.085.545l-.335.32c-.2-.263-.449-.395-.745-.395-.17 0-.31.047-.42.14a.442.442 0 0 0-.165.36c0 .193.105.352.315.475.086.053.23.127.43.22.21.1.365.178.465.235.356.217.535.503.535.86a.945.945 0 0 1-.35.765c-.234.197-.524.295-.87.295Z"/>
</svg>
