<svg xmlns="http://www.w3.org/2000/svg" width="430" height="87" fill="none" viewBox="0 0 430 87">
  <g clip-path="url(#a)">
    <path fill="#151515" d="M445.828 41.847c-13.89-3.445-63.604-25.84-127.173-11.722-150.579 33.444-237.352-5.263-237.352-5.263C36.28 4.675-4.248 4.262-15.737 4.615l.013 1.831C11.39 2.204 57.695 17.825 85.512 32.508c37.973 20.044 147.31 39.434 216.626 9.72 66.302-28.42 130.297 4.384 143.778 11.053l-.088-11.434Z"/>
    <path fill="url(#b)" d="M445.601 52.492c-13.475-6.67-77.476-39.474-143.778-11.053-69.31 29.719-178.653 10.328-216.631-9.715C57.38 17.04 11.075 1.424-16.038 5.668l.133 17.165c5.198 6.7 25.161 28.671 64.8 30.63 46.844 2.323 59.374-6.936 88.724 4.227 29.35 11.174 30.154 27.711 90.027 27.015 59.878-.691 136.599-33.92 175.574-29.75 17.07 1.826 31.583 7.914 42.505 14.184l-.129-16.647h.005Z"/>
    <path fill="#FBF9F7" d="M445.819 80.507c-4.682-3.202-9.723-6.313-14.966-9.256a221.243 221.243 0 0 0-18.569-9.256c-14.589-6.434-29.779-11.286-45.141-14.41a110.23 110.23 0 0 0-13.777-1.902 117.389 117.389 0 0 0-13.628-.214c-8.556.36-17.415 1.592-27.106 3.774-18.099 4.08-36.386 10.89-55.751 18.101l-.084.029c-5.182 1.932-10.849 3.758-16.839 5.437a261.416 261.416 0 0 1-20.846 4.906c-15.35 2.96-30.535 4.512-45.214 4.626-1.497.011-2.995.006-4.482-.01-19.321-.236-37.361-3.041-53.625-8.338-18.917-6.152-35.568-15.754-49.49-28.515-7.918-7.259-16.436-13.619-25.306-18.906a141.738 141.738 0 0 0-23.534-11.28C10.933 12.9 4.274 11.02-2.32 9.715c-4.726-.945-9.337-1.566-13.697-1.869l.003.464c13.651.953 48.223 6.548 82.006 37.508a130.75 130.75 0 0 0 11.588 9.447 132.09 132.09 0 0 0 12.224 7.843c8.008 4.533 16.709 8.35 25.849 11.323 16.303 5.307 34.394 8.118 53.76 8.365 8.408.1 17.121-.277 25.899-1.145a260.994 260.994 0 0 0 23.892-3.484 261.808 261.808 0 0 0 20.886-4.917c6.001-1.68 11.685-3.51 16.878-5.448l.085-.029c19.348-7.2 37.623-14.005 55.689-18.078 20.207-4.56 37.467-5.08 54.308-1.652 37.859 7.71 65.525 23.934 78.772 33.026l-.004-.562Z"/>
  </g>
  <defs>
    <linearGradient id="b" x1="445.544" x2="-15.735" y1="42.244" y2="45.824" gradientUnits="userSpaceOnUse">
      <stop stop-color="#4E4E4E"/>
      <stop offset=".228" stop-color="#fff"/>
      <stop offset=".414" stop-color="#434343"/>
      <stop offset=".586" stop-color="#717171"/>
      <stop offset=".772" stop-color="#A4A4A4"/>
      <stop offset="1" stop-color="#ACACAC"/>
    </linearGradient>
    <clipPath id="a">
      <path fill="#fff" d="M-14.009 3.582 447.24 0l.645 82.998-461.248 3.582z"/>
    </clipPath>
  </defs>
</svg>
