<svg xmlns="http://www.w3.org/2000/svg" width="434" height="145" fill="none" viewBox="0 0 434 145">
  <path fill="#2F2E2E" fill-rule="evenodd" d="M-42.06 81.72c5.569 7.785 10.954 15.356 15.877 23.48 17.746-10.54-1.045-34.573-15.877-23.48Zm-13.274-14.263c-14.695 14.76-12.378 54.311 26.18 39.882-4.895-8.319-9.494-15.976-15.065-23.547-6.647 6.172-4.183 14.754 6.604 15.446-14.97 4.108-20.893-14.752-12.231-23.053-1.989-2.699-4.047-5.743-5.488-8.728Zm-1.57-7.904c6.238-7.85 8.918-17.794 2.105-31.46-.995-1.997-3.329-1.542-4.3 1.197-3.41 9.628-3.076 19.677 2.195 30.263Zm-1.79 2.147c-8.928-17.48-11.914-32.8-4.856-44.583 2.375-3.969 3.946-3.697 6.035-.807 8.404 11.628 11.48 26.516 7.082 39.421-1.015 2.985-2.31 5.867-3.465 8.804 1.825 3.605 3.834 6.849 6.13 9.682 26.564-20.633 52.025 17.59 23.95 35.222 3.393 5.818 7.56 12.8 7.624 20.577.066 8.535-7.787 11.678-15.172 8.338-4.094-1.857-6.47-5.633-6.753-9.6-.175-2.487.14-5.317 1.845-7.043 3.263-3.294 9.484-3.78 12.233 1.224 1.684 3.064.517 6.889-2.602 8.543a6.524 6.524 0 0 1-5.993.052c-.077 1.26.563 2.559 2.37 3.656 3.99 2.42 10.785.305 10.564-6.191-.238-6.99-4.442-12.673-7.382-17.978C-62.63 127.288-82.679 88.579-58.695 61.7Zm48.348-27.544 2.503 7.626 6.24-2.186-2.504-7.626-6.24 2.186Zm-4.431-13.495 1.944 5.92 6.24-2.19-3.438-10.475 3.744-1.314 3.438 10.474 6.655-2.332 2.487 7.574-6.657 2.336L2.14 38.28l6.657-2.337 2.487 7.579-6.657 2.332L8.066 56.33l-3.744 1.314L.884 47.171l-6.242 2.188 1.944 5.92 1.494 4.555-3.743 1.312-1.495-4.553-1.944-5.918-6.655 2.333-2.486-7.575 6.656-2.337-2.503-7.626-6.656 2.336-2.487-7.578 6.655-2.337-1.943-5.915-1.494-4.555 3.744-1.315 1.494 4.555Zm32.41 108.33c18.796-.383 24.563-19.316 13.959-34.474-4.218-6.029-14.589-11.294-19.014-5.51 4.881-.878 9.322 4.519 9.628 7.522.697 6.844-6.88 6.923-12.343 2.86-4.523-3.365-6.932-9.842-1.394-15.163 4.546-5.186 21.251-6.371 29.818 5.551 12.71 17.695 6.483 46.596-20.654 39.214ZM64.79 21.064l-17.856 8.923-.477-2.741 17.86-8.923.474 2.741Zm19.373-9.679-17.859 8.927-.477-2.744 17.861-8.927.475 2.744ZM50.271 58.731a3.518 3.518 0 0 0-.855-.336c-1.704-.403-3.74.444-5.445 2.262-1.706 1.815-2.839 4.352-3.037 6.783l-.006 1.457c.077.95.314 1.798.706 2.536.585 1.093 1.453 1.808 2.519 2.053 1.71.404 3.742-.444 5.444-2.26 1.703-1.812 2.842-4.351 3.039-6.783a8.281 8.281 0 0 0-.163-2.464v-.045l-4.725-27.24 17.857-8.923 3.704 21.36a3.653 3.653 0 0 0-.853-.334c-1.708-.403-3.744.442-5.448 2.26-1.703 1.818-2.838 4.35-3.038 6.784l-.004 1.459c.075.945.314 1.796.708 2.534.583 1.094 1.452 1.81 2.515 2.055 1.712.403 3.744-.446 5.448-2.265 1.7-1.813 2.838-4.349 3.038-6.783a8.227 8.227 0 0 0-.164-2.46l-.001-.05-4.391-25.318 17.863-8.923 3.294 19.008a3.615 3.615 0 0 0-.855-.336c-1.706-.403-3.744.442-5.447 2.26-1.704 1.816-2.839 4.353-3.04 6.784l-.003 1.457c.079.951.316 1.798.708 2.537.583 1.092 1.453 1.808 2.515 2.053 1.712.403 3.744-.445 5.448-2.261 1.703-1.812 2.838-4.351 3.038-6.782a8.263 8.263 0 0 0-.164-2.465c-.001-.014.002-.03-.001-.045L83.933 0 43.562 20.173 50.27 58.73Zm64.769 62.718c-4.514 2.428-10.244 1.709-12.788-1.606-2.534-3.305-.921-7.963 3.603-10.397 3.403-1.831 7.483-1.881 10.38-.38L101.858 57.3c-.112-.386-.07-.755.129-1.036.191-.276.521-.435.909-.438.388-.016.8.124 1.17.4.361.271.627.64.745 1.038l.151.535c.322.477.652 1.06 1.046 1.724 1.085 1.805 5.961 7.404 10.252 11.054 4.295 3.652 8.952 7.424 10.98 14.132 2.043 6.702-.667 11.15-1.177 10.113-.286-.573 1.09-4.285-.467-9.425-1.563-5.151-4.74-7.966-9.434-11.409-2.697-1.978-6.248-3.692-8.157-5.215l12.117 43.65c1.011 3.321-2.773 7.784-5.082 9.026Zm71.087-73.879-1.28-3.347-19.53-.191 1.384 3.617 19.426-.08ZM174.12 67.386c.639 1.937-.193 4.636-2.239 6.689-2.559 2.566-6.045 3.162-7.786 1.323-1.749-1.84-1.08-5.411 1.477-7.981 1.8-1.806 4.062-2.633 5.852-2.326-2.761-7.218-10.807-28.268-10.807-28.26a.973.973 0 0 1 .004-.732c.097-.23.276-.4.505-.478a.91.91 0 0 1 .589.01l41.035.17c.412-.138.887.099 1.06.543l9.936 25.997c.515.711.801 1.593.822 2.57.045 1.861-.859 3.91-2.42 5.479-1.565 1.566-3.573 2.448-5.379 2.356-1.149-.058-2.144-.502-2.883-1.283-.74-.776-1.145-1.812-1.174-2.995-.048-1.866.861-3.912 2.42-5.479 1.564-1.568 3.575-2.447 5.38-2.356.327.02.64.064.941.143l-6.249-16.349-18.444-.185 8.595 22.484a.944.944 0 0 1 .052.472c.621 1.892-.191 4.517-2.187 6.522-2.499 2.51-5.904 3.09-7.607 1.292-1.704-1.792-1.055-5.278 1.446-7.792 1.757-1.764 3.965-2.574 5.709-2.27l-5.813-15.213-19.424.082 6.537 17.096a.98.98 0 0 1 .052.47Zm70.234 25.303-20.044 8.12-.454-2.136 20.036-8.117.462 2.133Zm-16.385 33.895a4.722 4.722 0 0 0-.934-.3c-1.87-.353-4.103.394-5.976 2.007-1.874 1.609-3.12 3.855-3.345 6.01l-.007 1.297c.081.835.342 1.589.768 2.244a4.134 4.134 0 0 0 2.754 1.82c1.874.359 4.105-.391 5.975-2.004 1.871-1.605 3.122-3.855 3.348-6.01a6.003 6.003 0 0 0-.176-2.185c-.002-.013.002-.028-.002-.039l-5.281-24.911 20.063-8.128 4.078 18.872a4.865 4.865 0 0 0-.94-.299c-1.871-.353-4.103.396-5.971 2.005-1.868 1.608-3.111 3.852-3.326 6.007l-.003 1.293a4.92 4.92 0 0 0 .778 2.245 4.177 4.177 0 0 0 2.763 1.82c1.878.355 4.109-.396 5.976-2.005 1.866-1.605 3.109-3.854 3.323-6.006.077-.785 0-1.51-.181-2.181-.002-.016 0-.032-.002-.043l-7.55-35.238-23.403 9.551 7.271 34.178Zm50.778-32.848c-.007-.013-.011-.033-.021-.048l-23.132-38.42a1.525 1.525 0 0 0-.785-.664c-.317-.12-.643-.101-.9.055h-.004a1.014 1.014 0 0 0-.478.752c-.051.332.029.69.216.999l20.833 34.605a5.942 5.942 0 0 0-1.295-.028c-2.482.245-4.926 2.009-6.535 4.72-1.61 2.713-2.164 5.991-1.481 8.776 0 .005.566 1.628.566 1.628a6.98 6.98 0 0 0 1.955 2.532c1.222.98 2.685 1.424 4.232 1.266 2.486-.245 4.926-2.013 6.534-4.721 1.608-2.705 2.164-5.992 1.482-8.777a8.358 8.358 0 0 0-1.187-2.675Zm43.701 48.697c-2.376 2.478-5.636 3.262-7.276 1.744-1.635-1.511-1.025-4.752 1.356-7.235 1.793-1.866 4.079-2.77 5.8-2.46l-15.454-39.388a.868.868 0 0 1 .004-.671.88.88 0 0 1 .485-.467.89.89 0 0 1 .683-.005.89.89 0 0 1 .482.488l.118.3c.21.225.434.52.697.847.726.89 3.82 3.325 6.46 4.673 2.642 1.349 5.498 2.695 7.064 6.432 1.575 3.728.338 7.069-.013 6.535-.197-.293.337-2.894-.865-5.754-1.207-2.868-3.168-3.935-6.024-5.071-1.639-.653-3.738-.958-4.908-1.494l2.41 6.162c1.315 3.492 4.32 5.022 7.624 6.702 2.65 1.345 5.515 2.691 7.093 6.421 1.587 3.724.361 7.061.008 6.526-.199-.289.328-2.889-.884-5.745-1.218-2.865-3.185-3.931-6.047-5.064-1.633-.644-3.721-.951-4.898-1.478l8.361 21.305c.779 1.847-1.058 5.433-2.276 6.697Zm131.367-61.637-17.406 9.726-.6-1.601 17.398-9.722.608 1.597Zm-11.782 29.362a4.467 4.467 0 0 0-.874-.08c-1.722.036-3.675.996-5.225 2.575-1.548 1.573-2.478 3.546-2.485 5.278l.107 1.018a3.3 3.3 0 0 0 .9 1.635c.662.656 1.58.995 2.654.972 1.727-.033 3.679-.998 5.226-2.574 1.548-1.574 2.479-3.55 2.488-5.278 0-.629-.131-1.191-.355-1.688-.004-.008-.002-.02-.006-.031l-7.012-18.686 17.42-9.732 5.382 14.145a4.449 4.449 0 0 0-.874-.079c-1.728.032-3.681.995-5.223 2.57-1.548 1.574-2.47 3.546-2.47 5.274l.114 1.015c.152.644.455 1.194.905 1.635.668.651 1.586.991 2.663.964 1.73-.033 3.681-.994 5.225-2.57 1.542-1.57 2.467-3.546 2.468-5.27a3.977 3.977 0 0 0-.362-1.685c-.002-.011 0-.023-.006-.035l-9.99-26.417-20.314 11.414 9.644 25.63Zm-75.039-2.269c.093 1.213-.722 2.601-2.113 3.415-1.747 1.017-3.739.743-4.453-.608-.716-1.353.122-3.27 1.867-4.287 1.227-.712 2.58-.79 3.522-.303l-2.197-17.984a.598.598 0 0 1 .099-.415.494.494 0 0 1 .108-.105l-.004-.018 12.273-4.258.002.011a.471.471 0 0 1 .193-.054c.278-.006.541.245.583.57l2.384 19.516a.585.585 0 0 1-.035.277c.095 1.218-.718 2.605-2.116 3.42-1.744 1.016-3.736.744-4.45-.609-.716-1.352.123-3.27 1.87-4.284 1.227-.716 2.577-.791 3.517-.305l-1.618-13.264-11.27 3.689 1.871 15.314a.557.557 0 0 1-.033.282Z" clip-rule="evenodd"/>
  <path fill="#2F2E2E" fill-rule="evenodd" d="M-73.838 142.461c155.783-52.813 236.979-37.737 303.112-25.46 24.591 4.562 47.096 8.741 70.548 8.878 71.637.414 112.664-16.879 149.293-32.319 20.941-8.826 40.452-17.046 63.424-21.05 29.036-5.057 59.728-.395 86.72 9.855 30.032 11.406 55.513 29.749 69.06 49.343l-1.257.866c-13.377-19.348-38.591-37.48-68.342-48.778-26.758-10.163-57.172-14.786-85.924-9.778-22.812 3.971-42.238 12.159-63.088 20.946-36.767 15.499-77.948 32.855-149.892 32.442-23.597-.137-46.159-4.328-70.818-8.906-65.954-12.241-146.937-27.276-302.345 25.408l-.49-1.447Z" clip-rule="evenodd"/>
  <path fill="#2F2E2E" fill-rule="evenodd" d="M-87.429 118.734C72.123 66.892 163.458 89.378 239.208 108.03c31.385 7.727 60.087 14.793 89.823 15.61 59.839.72 97.155-14.096 131.218-27.62 19.573-7.769 38.075-15.118 59.163-18.878v.004c30.476-5.506 60.102-2.092 85.481 7.168 27.697 10.105 50.352 27.185 63.557 47.263l-1.276.835c-13.027-19.808-35.414-36.671-62.8-46.663-25.149-9.176-54.502-12.556-84.696-7.104l-.001.004c-20.955 3.74-39.378 11.053-58.866 18.788-34.199 13.58-71.666 28.452-131.811 27.729h-.011c-29.905-.82-58.682-7.905-90.148-15.653-75.555-18.602-166.66-41.033-325.798 10.675l-.472-1.454Z" clip-rule="evenodd"/>
  <path fill="#2F2E2E" fill-rule="evenodd" d="M-101.023 95.011c163.984-51.209 264.836-21.625 349.941 3.342 38.2 11.203 73.221 21.478 109.314 23.052 48.16 1.025 81.782-11.37 113.322-23 18.127-6.685 35.571-13.118 54.729-16.629 31.954-5.958 60.45-3.839 84.172 4.428 25.361 8.84 45.268 24.704 58.126 45.239l-1.298.811c-12.675-20.246-32.31-35.886-57.33-44.607-23.481-8.184-51.71-10.275-83.394-4.368-19.015 3.486-36.407 9.9-54.477 16.562-31.672 11.677-65.435 24.123-113.897 23.09h-.019c-36.281-1.581-71.388-11.884-109.682-23.116-84.897-24.903-185.508-54.416-349.052-3.347l-.455-1.457Z" clip-rule="evenodd"/>
  <path fill="#2F2E2E" fill-rule="evenodd" d="M-114.615 71.287c168.808-50.785 278.757-14.37 372.984 16.838 45.066 14.924 86.528 28.658 129.062 31.043 36.66 1.337 66.685-8.735 95.819-18.51 16.562-5.554 32.839-11.014 49.904-14.246v-.004c34.214-6.569 61.956-5.612 84.213 2.113 22.314 7.74 39.096 22.258 51.344 42.791l-1.313.783c-12.062-20.222-28.58-34.518-50.527-42.135-22.001-7.63-49.481-8.568-83.428-2.048h-.003c-16.976 3.214-33.197 8.658-49.706 14.193-29.267 9.82-59.43 19.937-96.372 18.589h-.015c-42.745-2.4-84.296-16.162-129.456-31.118C163.869 58.44 54.168 22.108-114.178 72.75l-.437-1.464Z" clip-rule="evenodd"/>
  <path fill="#2F2E2E" fill-rule="evenodd" d="M-128.212 47.562c173.891-50.5 292.631-7.476 395.807 29.908 51.96 18.826 99.966 36.222 149.031 39.46 25.409 1.676 52.256-6.27 79.362-14.297 14.661-4.34 29.399-8.704 44.041-11.59 35.392-6.98 61.54-7.532 81.868-1.064 20.399 6.493 34.899 20.024 46.941 41.202l-1.328.752c-11.848-20.834-26.081-34.138-46.073-40.502-20.065-6.385-45.974-5.815-81.117 1.11-14.591 2.88-29.285 7.228-43.901 11.557-27.237 8.064-54.216 16.053-79.888 14.357-49.282-3.252-97.387-20.683-149.459-39.55C164.114 41.602 45.627-1.332-127.787 49.03l-.425-1.467Z" clip-rule="evenodd"/>
  <path fill="#2F2E2E" fill-rule="evenodd" d="m139.971 37.633 25.689 69.88-1.692.617-25.688-69.874 1.691-.623Zm202.644 64.854 13.221 19.417-1.486 1.012-13.225-19.412 1.49-1.017Z" clip-rule="evenodd"/>
</svg>
