<svg xmlns="http://www.w3.org/2000/svg" width="226" height="55" fill="none" viewBox="0 0 226 55">
  <path fill="#FEFEFE" d="M81.713 27.487h-.248c.002 14.76 11.966 26.724 26.727 26.724 14.757 0 26.723-11.963 26.723-26.724 0-14.758-11.966-26.723-26.723-26.723-14.761 0-26.725 11.965-26.727 26.723h.497a26.143 26.143 0 0 1 7.682-18.545 26.15 26.15 0 0 1 18.548-7.682 26.143 26.143 0 0 1 18.544 7.682 26.144 26.144 0 0 1 7.682 18.545c0 7.243-2.935 13.8-7.682 18.547a26.145 26.145 0 0 1-18.544 7.68c-7.244 0-13.8-2.935-18.548-7.68a26.154 26.154 0 0 1-7.682-18.547h-.249Z"/>
  <path fill="#FEFEFE" d="M102.252 37.815c-.724 0-1.316-.59-1.316-1.314V18.474c0-.723.592-1.313 1.316-1.313.723 0 1.315.59 1.315 1.313V36.5c0 .723-.592 1.314-1.315 1.314Zm11.878 0c-.723 0-1.316-.59-1.316-1.314V18.474c0-.723.593-1.313 1.316-1.313.721 0 1.313.59 1.313 1.313V36.5c0 .723-.592 1.314-1.313 1.314Zm38.223-20.046v19.44l14.937-9.722-14.937-9.718Zm15.746 19.44h1.381v-19.44h-1.381v19.44ZM64.028 17.769v19.44L49.09 27.487l14.938-9.718Zm-17.126 19.44h1.38v-19.44h-1.38v19.44ZM195.07 24.903a5.027 5.027 0 0 1 5.02-5.02h14.533a6.641 6.641 0 0 1 6.633 6.634h.994a7.626 7.626 0 0 0-7.627-7.627H200.09a6.015 6.015 0 0 0-6.014 6.013h.994Z"/>
  <path fill="#FEFEFE" d="M198.009 22.663h-6.872l3.436 3.854 3.436-3.854Zm23.247 7.409a5.023 5.023 0 0 1-5.019 5.018h-14.533a6.642 6.642 0 0 1-6.634-6.634h-.991a7.625 7.625 0 0 0 7.625 7.628h14.533a6.013 6.013 0 0 0 6.013-6.012h-.994Z"/>
  <path fill="#FEFEFE" d="M218.317 32.312h6.874l-3.438-3.856-3.436 3.856Zm-196.58-9.553h-6.852a5.096 5.096 0 0 0-5.1 5.097 4.108 4.108 0 0 1-4.101 4.104H.473v.994h5.21a5.097 5.097 0 0 0 5.096-5.098 4.11 4.11 0 0 1 4.106-4.104h6.852v-.993Z"/>
  <path fill="#FEFEFE" d="M19.81 19.901v6.872l3.855-3.436-3.855-3.436Zm1.927 11.322h-6.852a4.108 4.108 0 0 1-4.106-4.104 5.096 5.096 0 0 0-5.095-5.098H.473v.994h5.21a4.107 4.107 0 0 1 4.103 4.104 5.096 5.096 0 0 0 5.099 5.097h6.852v-.993Z"/>
  <path fill="#FEFEFE" d="M19.81 35.074v-6.872l3.855 3.436-3.855 3.436Z"/>
</svg>
