<svg xmlns="http://www.w3.org/2000/svg" width="430" height="167" fill="none" viewBox="0 0 430 167">
  <g clip-path="url(#a)">
    <g clip-path="url(#b)">
      <path fill="#fff" fill-rule="evenodd" d="m-134.467 68.67 51.394 92.318 6.463-2.464c144.567-48.089 220.582-33.989 282.615-22.478 23.463 4.355 44.93 8.341 67.382 8.472 16.35.094 31.027-.778 44.378-2.359a282.919 282.919 0 0 0 23.859-1.951 230.275 230.275 0 0 0 24.065-1.982c8.357-.129 16.355-.856 24.077-2.015 22.819.303 46.645-6.75 70.684-13.866 13.908-4.118 27.888-8.255 41.772-10.994 27.678-5.453 49.336-6.763 66.804-3.608 23.355 10.729 42.782 25.777 53.788 41.692l1.195-.824-.02-.03.145-.095-.023-.035.148-.092-.024-.037.147-.088-.025-.041.146-.083c-11.457-20.147-25.254-33.019-44.663-39.196a77.602 77.602 0 0 0-2.622-.783 98.9 98.9 0 0 0-5.935-1.97 124.18 124.18 0 0 0-6.28-2.14 152.788 152.788 0 0 0-6.478-2.265l-.224-.086c-25.683-9.75-54.886-14.185-82.513-9.374-21.857 3.808-40.421 11.628-60.346 20.025-16.156 6.808-33.215 13.994-53.655 19.706-38.914-5.982-77.667-20.02-119.057-35.013C148.006 62.699 39.486 23.398-116.653 63.84l-.151-.287-17.663 5.115Z" clip-rule="evenodd"/>
    </g>
    <path fill="#A7A7A7" fill-rule="evenodd" d="M-30.505 140.161c18.796-.383 24.563-19.316 13.959-34.474-4.218-6.03-14.589-11.294-19.014-5.51 4.882-.879 9.323 4.519 9.628 7.522.697 6.843-6.88 6.923-12.342 2.86-4.524-3.365-6.933-9.842-1.395-15.163 4.546-5.186 21.251-6.372 29.819 5.551 12.709 17.695 6.483 46.596-20.655 39.214ZM16.653 32.234l-17.857 8.923-.477-2.742 17.86-8.923.474 2.742Zm19.373-9.68-17.86 8.927-.476-2.743 17.86-8.927.476 2.744ZM2.133 69.902a3.52 3.52 0 0 0-.855-.336c-1.704-.403-3.74.444-5.445 2.261-1.706 1.816-2.839 4.353-3.037 6.784l-.006 1.456c.077.951.314 1.799.706 2.537.585 1.093 1.454 1.808 2.519 2.053 1.71.403 3.742-.444 5.445-2.261 1.702-1.811 2.84-4.35 3.038-6.782a8.282 8.282 0 0 0-.163-2.465v-.044l-4.724-27.24 17.857-8.923 3.704 21.36a3.658 3.658 0 0 0-.853-.335c-1.709-.403-3.745.442-5.449 2.261-1.703 1.818-2.837 4.349-3.038 6.784l-.004 1.459c.075.945.315 1.796.709 2.534.582 1.094 1.451 1.81 2.514 2.055 1.713.403 3.744-.446 5.449-2.265 1.7-1.813 2.837-4.349 3.038-6.784a8.228 8.228 0 0 0-.164-2.46c-.002-.015 0-.03-.002-.05l-4.391-25.317 17.863-8.923 3.294 19.007a3.611 3.611 0 0 0-.855-.335c-1.706-.403-3.744.442-5.447 2.26-1.704 1.816-2.838 4.353-3.04 6.784l-.003 1.457c.08.95.317 1.798.709 2.536.582 1.092 1.453 1.808 2.514 2.053 1.712.403 3.744-.444 5.449-2.26 1.702-1.812 2.837-4.352 3.038-6.782a8.264 8.264 0 0 0-.164-2.465c-.002-.014.002-.03-.002-.045l-6.541-38.3-40.372 20.172 6.71 38.559Zm64.77 62.716c-4.515 2.429-10.245 1.709-12.789-1.605-2.534-3.306-.92-7.963 3.603-10.397 3.403-1.832 7.484-1.881 10.38-.381L53.72 68.47c-.111-.386-.07-.755.13-1.037.19-.275.52-.434.908-.438.388-.015.8.124 1.17.4.361.272.628.64.745 1.04l.15.534c.323.476.653 1.06 1.047 1.723 1.085 1.806 5.962 7.405 10.253 11.054 4.294 3.653 8.951 7.424 10.98 14.132 2.042 6.703-.668 11.15-1.178 10.114-.285-.573 1.09-4.285-.466-9.425-1.564-5.151-4.741-7.966-9.435-11.41-2.697-1.977-6.248-3.692-8.157-5.214l12.118 43.65c1.01 3.32-2.774 7.784-5.082 9.025Zm71.086-73.878-1.279-3.347-19.531-.192 1.384 3.618 19.426-.08Zm-12.007 19.815c.639 1.937-.192 4.637-2.239 6.69-2.559 2.566-6.045 3.162-7.786 1.323-1.748-1.84-1.08-5.412 1.477-7.981 1.801-1.806 4.063-2.634 5.852-2.326-2.76-7.219-10.807-28.269-10.807-28.261a.983.983 0 0 1 .004-.731c.097-.23.277-.4.506-.479a.91.91 0 0 1 .589.011l41.035.17c.411-.139.886.099 1.06.543l9.936 25.996c.515.712.801 1.594.822 2.57.044 1.862-.859 3.91-2.421 5.48-1.565 1.566-3.572 2.448-5.379 2.355-1.148-.058-2.144-.502-2.883-1.283-.739-.776-1.145-1.812-1.174-2.994-.048-1.866.861-3.912 2.421-5.48 1.563-1.567 3.574-2.446 5.379-2.355.328.02.641.064.942.143l-6.25-16.349-18.444-.185 8.595 22.484a.944.944 0 0 1 .052.472c.621 1.891-.191 4.517-2.187 6.522-2.499 2.51-5.904 3.09-7.606 1.292-1.704-1.792-1.056-5.278 1.446-7.792 1.756-1.764 3.964-2.574 5.709-2.271l-5.814-15.213-19.424.083 6.537 17.096a.98.98 0 0 1 .052.47Zm70.234 25.303-20.044 8.121-.454-2.136 20.037-8.117.461 2.132Zm-16.385 33.896a4.595 4.595 0 0 0-.934-.3c-1.87-.353-4.103.394-5.975 2.007-1.874 1.609-3.121 3.855-3.345 6.01l-.008 1.296c.081.835.342 1.59.768 2.245a4.134 4.134 0 0 0 2.754 1.82c1.875.359 4.106-.391 5.976-2.004 1.87-1.605 3.121-3.855 3.347-6.01a5.989 5.989 0 0 0-.176-2.186c-.002-.012.002-.027-.002-.038l-5.281-24.911 20.063-8.128 4.078 18.872a4.787 4.787 0 0 0-.939-.299c-1.872-.353-4.104.395-5.972 2.005-1.868 1.608-3.111 3.852-3.325 6.007l-.004 1.293c.085.839.347 1.589.778 2.245a4.183 4.183 0 0 0 2.764 1.82c1.877.355 4.108-.396 5.975-2.005 1.866-1.605 3.109-3.855 3.323-6.006a6.04 6.04 0 0 0-.181-2.182c-.002-.015 0-.031-.002-.042l-7.55-35.239-23.403 9.552 7.271 34.178Zm50.779-32.848c-.008-.013-.012-.033-.022-.048l-23.131-38.42a1.53 1.53 0 0 0-.786-.664c-.317-.12-.643-.102-.899.054h-.004a1.012 1.012 0 0 0-.479.752c-.05.333.029.692.216 1l20.833 34.605a5.942 5.942 0 0 0-1.295-.029c-2.482.245-4.925 2.009-6.535 4.721-1.61 2.713-2.164 5.991-1.48 8.776 0 .005.565 1.627.565 1.627a6.985 6.985 0 0 0 1.955 2.533c1.222.98 2.685 1.424 4.233 1.266 2.486-.245 4.925-2.013 6.533-4.721 1.608-2.705 2.164-5.992 1.482-8.777a8.353 8.353 0 0 0-1.186-2.675Zm43.7 48.697c-2.376 2.478-5.635 3.262-7.276 1.744-1.635-1.511-1.025-4.752 1.357-7.235 1.793-1.867 4.078-2.77 5.8-2.46l-15.455-39.388a.867.867 0 0 1 .489-1.138.892.892 0 0 1 .683-.005c.22.095.392.263.482.487l.119.301c.21.225.433.519.696.847.726.889 3.82 3.324 6.46 4.672 2.642 1.349 5.499 2.695 7.064 6.433 1.575 3.727.338 7.069-.013 6.534-.197-.293.337-2.894-.865-5.753-1.207-2.869-3.167-3.935-6.024-5.072-1.638-.653-3.738-.957-4.908-1.494l2.411 6.163c1.314 3.491 4.319 5.022 7.624 6.702 2.649 1.345 5.514 2.691 7.092 6.421 1.587 3.723.361 7.061.008 6.526-.199-.289.328-2.889-.884-5.745-1.218-2.865-3.184-3.931-6.047-5.064-1.632-.644-3.721-.951-4.898-1.478l8.361 21.305c.779 1.846-1.058 5.433-2.276 6.697Zm131.367-61.637-17.406 9.726-.6-1.602 17.398-9.722.608 1.598Zm-11.782 29.361a4.385 4.385 0 0 0-.874-.079c-1.722.036-3.675.995-5.225 2.574-1.548 1.574-2.478 3.546-2.485 5.279l.108 1.018a3.3 3.3 0 0 0 .899 1.635c.662.655 1.581.995 2.654.972 1.727-.033 3.679-.998 5.226-2.574 1.548-1.574 2.479-3.55 2.488-5.278 0-.63-.131-1.191-.355-1.688-.004-.009-.002-.02-.005-.031l-7.013-18.686 17.42-9.733 5.382 14.146a4.427 4.427 0 0 0-.874-.079c-1.727.032-3.68.995-5.223 2.57-1.548 1.574-2.47 3.546-2.47 5.274l.114 1.015c.152.644.455 1.194.905 1.634.668.652 1.586.992 2.664.965 1.729-.033 3.68-.994 5.224-2.57 1.542-1.57 2.467-3.546 2.468-5.271a3.96 3.96 0 0 0-.362-1.684c-.002-.011 0-.024-.006-.035l-9.99-26.417-20.314 11.413 9.644 25.63Zm45.073-14.496c-.519 1.304-1.883 2.53-3.643 3.28-1.763.749-3.606.893-4.932.384l-.002-.004c-.644-.245-1.1-.64-1.314-1.13-.222-.506-.207-1.1.048-1.732.521-1.302 1.886-2.526 3.646-3.281 1.759-.753 3.602-.893 4.93-.376.644.249 1.102.641 1.318 1.134.222.498.203 1.093-.051 1.725Zm1.958-1.19c0-.008.005-.02.005-.033l.363-28.203a.834.834 0 0 0-.249-.613.871.871 0 0 0-.619-.268h-.004a.888.888 0 0 0-.628.249.855.855 0 0 0-.265.611l-.331 25.401a4.878 4.878 0 0 0-.849-.438c-1.755-.677-4.101-.526-6.282.407-2.187.936-3.901 2.518-4.59 4.236l-.29 1.059a3.57 3.57 0 0 0 .263 2c.411.928 1.202 1.644 2.295 2.062 1.756.681 4.105.527 6.284-.407 2.183-.931 3.897-2.518 4.588-4.235a4.345 4.345 0 0 0 .309-1.828Zm-122.069 13.418c.092 1.213-.723 2.6-2.114 3.415-1.747 1.016-3.738.742-4.453-.608-.716-1.353.122-3.271 1.867-4.287 1.227-.712 2.58-.791 3.522-.303l-2.196-17.985a.592.592 0 0 1 .098-.414.537.537 0 0 1 .108-.105l-.003-.019 12.273-4.258.001.012a.476.476 0 0 1 .194-.054c.278-.006.54.245.582.569l2.384 19.516a.604.604 0 0 1-.034.278c.094 1.218-.719 2.605-2.116 3.419-1.745 1.016-3.736.745-4.451-.608-.716-1.352.124-3.27 1.871-4.285 1.227-.715 2.576-.79 3.516-.305l-1.617-13.263-11.27 3.689 1.87 15.314a.556.556 0 0 1-.032.282Z" clip-rule="evenodd"/>
    <path fill="#A7A7A7" fill-rule="evenodd" d="M-121.975 153.631c155.783-52.813 236.979-37.737 303.111-25.46 24.591 4.562 47.096 8.741 70.548 8.878 71.637.414 112.665-16.879 149.293-32.319 20.941-8.826 40.452-17.047 63.424-21.05 29.036-5.057 59.729-.396 86.721 9.854 30.031 11.407 55.512 29.75 69.059 49.344l-1.256.866c-13.378-19.349-38.592-37.48-68.342-48.778-26.759-10.163-57.173-14.786-85.925-9.778-22.812 3.97-42.238 12.159-63.088 20.946-36.766 15.499-77.948 32.854-149.892 32.441-23.597-.137-46.159-4.327-70.818-8.905-65.954-12.241-146.936-27.276-302.345 25.408l-.49-1.447Z" clip-rule="evenodd"/>
    <path fill="#A7A7A7" fill-rule="evenodd" d="M-135.567 129.904C23.985 78.061 115.32 100.548 191.07 119.2c31.385 7.727 60.087 14.793 89.824 15.61 59.838.719 97.154-14.096 131.217-27.62 19.574-7.77 38.075-15.118 59.163-18.878v.003c30.476-5.506 60.102-2.09 85.481 7.168 27.697 10.106 50.352 27.186 63.558 47.264l-1.276.835c-13.028-19.808-35.415-36.671-62.801-46.663-25.149-9.176-54.501-12.556-84.696-7.105l-.001.005c-20.955 3.739-39.378 11.053-58.866 18.787-34.199 13.581-71.665 28.453-131.81 27.729h-.012c-29.904-.819-58.682-7.904-90.148-15.652-75.554-18.602-166.66-41.033-325.797 10.675l-.473-1.454Z" clip-rule="evenodd"/>
    <path fill="#A7A7A7" fill-rule="evenodd" d="M-149.161 106.181c163.984-51.209 264.837-21.625 349.941 3.341 38.2 11.204 73.221 21.479 109.314 23.053 48.161 1.025 81.783-11.371 113.322-23.001 18.128-6.684 35.572-13.117 54.729-16.628 31.954-5.958 60.45-3.84 84.173 4.427 25.361 8.84 45.268 24.705 58.126 45.24l-1.299.811c-12.675-20.247-32.309-35.886-57.329-44.607-23.482-8.184-51.711-10.275-83.395-4.368-19.015 3.486-36.407 9.899-54.476 16.561-31.673 11.677-65.435 24.123-113.898 23.091h-.019c-36.281-1.582-71.387-11.884-109.682-23.116-84.896-24.903-185.507-54.416-349.051-3.347l-.456-1.457Z" clip-rule="evenodd"/>
    <path fill="#A7A7A7" fill-rule="evenodd" d="M-162.752 82.457C6.055 31.672 116.004 68.087 210.232 99.295c45.065 14.924 86.527 28.657 129.062 31.042 36.66 1.337 66.684-8.734 95.818-18.509 16.562-5.555 32.839-11.014 49.904-14.246v-.004c34.215-6.57 61.956-5.612 84.213 2.113 22.314 7.74 39.096 22.258 51.344 42.791l-1.312.783c-12.063-20.223-28.581-34.518-50.527-42.135-22.002-7.63-49.482-8.568-83.428-2.049h-.004c-16.975 3.214-33.197 8.659-49.705 14.194-29.268 9.819-59.431 19.937-96.373 18.589h-.015c-42.745-2.401-84.296-16.162-129.456-31.118C115.731 69.61 6.03 33.277-162.316 83.921l-.436-1.464Z" clip-rule="evenodd"/>
    <path fill="#A7A7A7" fill-rule="evenodd" d="M-176.349 58.732c173.89-50.5 292.631-7.476 395.806 29.908 51.96 18.826 99.967 36.222 149.031 39.459 25.41 1.677 52.257-6.27 79.363-14.296 14.66-4.341 29.399-8.704 44.04-11.591 35.392-6.978 61.54-7.531 81.868-1.063 20.399 6.493 34.9 20.024 46.942 41.202l-1.328.752c-11.849-20.834-26.082-34.138-46.073-40.502-20.066-6.385-45.974-5.815-81.117 1.11-14.592 2.879-29.285 7.227-43.902 11.556-27.237 8.065-54.215 16.054-79.887 14.358-49.283-3.252-97.388-20.683-149.46-39.55C115.977 52.771-2.511 9.837-175.924 60.2l-.425-1.467Z" clip-rule="evenodd"/>
    <path fill="#A7A7A7" fill-rule="evenodd" d="m91.833 48.802 25.69 69.881-1.693.617-25.687-69.874 1.69-.624Zm202.644 64.855 13.222 19.416-1.487 1.013-13.224-19.413 1.489-1.016Z" clip-rule="evenodd"/>
  </g>
  <defs>
    <clipPath id="a">
      <path fill="#fff" d="M-4 0h476v167H-4z"/>
    </clipPath>
    <clipPath id="b">
      <path fill="#fff" d="M-4-101.181h476V744.54H-4z"/>
    </clipPath>
  </defs>
</svg>
