<svg xmlns="http://www.w3.org/2000/svg" width="430" height="300" fill="none" viewBox="0 0 430 300">
  <g clip-path="url(#a)">
    <g clip-path="url(#b)">
      <path fill="#000" fill-rule="evenodd" d="m661.747 204.094-81.536 103.99-7.479-4.316c-168.671-87.852-265.126-85.371-343.839-83.341-29.772.771-57.013 1.477-84.707-2.776-20.166-3.098-38.08-7.061-54.222-11.639a352.044 352.044 0 0 1-29.017-7.102 286.459 286.459 0 0 1-29.265-7.181c-10.273-1.802-19.985-4.272-29.273-7.223-28.18-4.112-56.151-17.513-84.372-31.033-16.326-7.824-32.739-15.685-49.308-21.799-33.033-12.181-59.464-18.058-81.612-17.593-30.897 8.668-57.804 23.447-74.504 40.952l-1.311-1.253.032-.033-.161-.146.035-.039-.164-.143.037-.041-.164-.137.039-.047-.164-.131c18.092-22.646 37.632-35.842 62.768-39.66a98.21 98.21 0 0 1 3.385-.452 123.022 123.022 0 0 1 7.701-1.268 152.479 152.479 0 0 1 8.162-1.41 191.279 191.279 0 0 1 8.429-1.526l.294-.062c33.571-7.002 70.433-6.741 103.53 4.636 26.184 9.003 47.519 22.318 70.417 36.612 18.567 11.59 38.172 23.824 62.234 34.902 49.135.258 99.659-9.473 153.62-19.866 123.496-23.787 264.975-51.022 449.413 29.655l.244-.325 20.758 9.795Z" clip-rule="evenodd"/>
    </g>
    <path fill="#A7A7A7" fill-rule="evenodd" d="m459.803 133.784 20.247 14.538 1.127-3.294-20.249-14.539-1.125 3.295Zm-21.964-15.77 20.248 14.543 1.128-3.297-20.25-14.544-1.126 3.298Zm32.431 65.176a4.409 4.409 0 0 1 1.12-.247c2.179-.163 4.522 1.284 6.264 3.866 1.744 2.578 2.64 5.936 2.405 8.98l-.279 1.801c-.283 1.16-.743 2.161-1.371 2.996-.936 1.236-2.148 1.949-3.509 2.042-2.187.163-4.524-1.284-6.264-3.864-1.74-2.573-2.643-5.935-2.406-8.979a10.36 10.36 0 0 1 .686-3.014l.009-.056 11.193-32.735-20.247-14.539-8.776 25.671a4.579 4.579 0 0 1 1.118-.246c2.184-.163 4.527 1.282 6.268 3.865 1.74 2.581 2.639 5.932 2.407 8.981l-.283 1.804c-.279 1.153-.742 2.157-1.373 2.992-.934 1.238-2.145 1.952-3.504 2.046-2.189.161-4.526-1.288-6.268-3.871-1.737-2.575-2.639-5.932-2.406-8.981.085-1.103.331-2.105.687-3.007.005-.019.006-.038.012-.062l10.403-30.426-20.254-14.539-7.807 22.843a4.54 4.54 0 0 1 1.12-.247c2.182-.163 4.527 1.282 6.266 3.865 1.743 2.579 2.641 5.937 2.409 8.981l-.283 1.801c-.285 1.16-.745 2.16-1.373 2.996-.933 1.235-2.147 1.948-3.503 2.043-2.189.161-4.527-1.285-6.269-3.866-1.741-2.574-2.639-5.935-2.407-8.978.086-1.104.332-2.111.688-3.014.005-.017.004-.037.011-.055l15.612-46.049 45.774 32.868-15.87 46.334Zm-92.182 64.778c5.084 3.889 12.288 4.126 16.076.529 3.775-3.586 2.705-9.659-2.39-13.557-3.833-2.933-8.851-3.796-12.717-2.511l27.924-61.149c.213-.455.234-.919.044-1.306-.181-.379-.556-.639-1.033-.72-.475-.096-1.01-.004-1.521.264-.498.265-.899.668-1.123 1.137l-.291.632c-.491.525-1.012 1.181-1.628 1.924-1.693 2.018-8.807 7.978-14.815 11.646-6.012 3.669-12.495 7.415-16.317 15.306-3.838 7.882-1.375 13.911-.543 12.731.465-.652-.499-5.51 2.434-11.557 2.942-6.058 7.412-8.912 13.875-12.245 3.713-1.914 8.428-3.335 11.08-4.842l-23.538 51.564c-1.901 3.905 1.883 10.166 4.483 12.154Zm-73.035-105.28 2.236-3.885 24.106 3.603-2.419 4.199-23.923-3.917Zm10.89 26.85c-1.17 2.268-.677 5.768 1.44 8.708 2.648 3.674 6.826 5.096 9.333 3.165 2.518-1.93 2.399-6.475-.246-10.154-1.862-2.586-4.487-4.053-6.753-4.024 4.825-8.379 18.891-32.812 18.889-32.803.165-.284.212-.604.14-.904a1.055 1.055 0 0 0-.529-.691 1.131 1.131 0 0 0-.727-.102l-50.602-7.857c-.48-.253-1.112-.053-1.413.462l-17.37 30.175c-.775.778-1.301 1.812-1.52 3.015-.422 2.291.287 5.001 1.902 7.247 1.62 2.244 3.92 3.728 6.165 3.969 1.426.154 2.741-.199 3.806-1.019 1.064-.814 1.767-2.014 2.036-3.47.428-2.296-.289-5.004-1.902-7.247-1.617-2.246-3.922-3.727-6.164-3.969a5.99 5.99 0 0 0-1.189-.008l10.925-18.977 22.765 3.397-15.024 26.097c-.102.18-.155.371-.158.574-1.138 2.215-.655 5.62 1.409 8.49 2.585 3.593 6.666 4.98 9.119 3.092 2.454-1.88 2.341-6.316-.245-9.915-1.817-2.524-4.378-3.96-6.588-3.928l10.163-17.658 23.921 3.921-11.427 19.843a1.234 1.234 0 0 0-.156.571Zm-91.539 17.464 23.099 13.976.98-2.55-23.091-13.971-.988 2.545Zm13.508 45.111a5.856 5.856 0 0 1 1.21-.187c2.374-.068 4.979 1.294 6.968 3.655 1.992 2.357 3.086 5.378 2.937 8.085l-.246 1.604a6.205 6.205 0 0 1-1.389 2.624c-.979 1.072-2.276 1.667-3.753 1.708-2.38.074-4.982-1.292-6.968-3.652-1.989-2.352-3.087-5.378-2.94-8.086a7.51 7.51 0 0 1 .647-2.666c.005-.016.003-.035.01-.048l11.419-29.749-23.121-13.989-8.746 22.522c.39-.097.795-.169 1.217-.185 2.376-.068 4.978 1.296 6.963 3.652 1.985 2.355 3.074 5.373 2.914 8.078l-.25 1.598c-.27 1.02-.742 1.897-1.402 2.622a5.213 5.213 0 0 1-3.765 1.706c-2.383.07-4.985-1.297-6.968-3.652-1.983-2.351-3.072-5.376-2.911-8.077.06-.985.298-1.866.653-2.66.006-.019.006-.039.011-.052l16.252-42.066 26.956 16.406-15.698 40.809Zm-56.099-50.578c.012-.015.021-.039.036-.056l36.08-42.934c.29-.35.679-.584 1.099-.666.414-.085.812.001 1.098.244l.005.001c.295.247.449.609.441 1.023a1.897 1.897 0 0 1-.463 1.193l-32.496 38.672c.531.019 1.066.08 1.601.219 3.011.791 5.674 3.451 7.123 7.119 1.45 3.669 1.486 7.829.094 11.137-.001.006-1.017 1.9-1.017 1.9-.787 1.169-1.763 2.087-2.909 2.746-1.699.971-3.589 1.231-5.465.732-3.016-.792-5.673-3.456-7.121-7.119-1.448-3.659-1.485-7.831-.096-11.138a10.466 10.466 0 0 1 1.99-3.073Zm-63.454 51.591c2.439 3.531 6.302 5.14 8.623 3.586 2.312-1.546 2.199-5.671-.246-9.208-1.841-2.659-4.479-4.225-6.662-4.18l26.81-45.641c.152-.249.199-.547.128-.83a1.103 1.103 0 0 0-.506-.672 1.107 1.107 0 0 0-.84-.14 1.112 1.112 0 0 0-.691.507l-.205.348c-.303.237-.637.557-1.025.91-1.07.956-5.363 3.358-8.882 4.505-3.522 1.148-7.307 2.25-9.973 6.561-2.676 4.297-1.811 8.67-1.272 8.078.3-.323.154-3.643 2.2-6.94 2.052-3.308 4.679-4.241 8.423-5.084 2.148-.484 4.795-.448 6.343-.881l-4.186 7.142c-2.308 4.057-6.313 5.358-10.716 6.784-3.531 1.141-7.326 2.242-10.007 6.541-2.689 4.29-1.837 8.656-1.296 8.064.302-.318.165-3.635 2.222-6.926 2.065-3.302 4.699-4.233 8.45-5.07 2.139-.475 4.773-.444 6.328-.864l-14.504 24.687c-1.325 2.129.232 6.922 1.484 8.723Zm-48.084-51.449c-.354 1.481.377 3.356 1.93 4.636 1.953 1.6 4.461 1.653 5.608.125 1.15-1.532.495-4.067-1.455-5.666-1.372-1.121-3.024-1.484-4.281-1.067l6.253-21.794a.746.746 0 0 0-.04-.532.657.657 0 0 0-.113-.151l.009-.022-14.285-7.675-.005.013a.598.598 0 0 0-.227-.104c-.341-.062-.714.197-.83.589l-6.786 23.651a.73.73 0 0 0-.012.349c-.357 1.487.372 3.361 1.933 4.642 1.95 1.599 4.458 1.655 5.605.123 1.149-1.53.492-4.065-1.46-5.662-1.372-1.126-3.02-1.484-4.274-1.069l4.608-16.074 13.161 6.775-5.324 18.558a.705.705 0 0 0-.016.355Z" clip-rule="evenodd"/>
    <path fill="#A7A7A7" fill-rule="evenodd" d="M606.702 311.069c-181.561-95.897-284.593-93.227-368.509-91.055-31.204.803-59.76 1.544-88.688-2.897-88.36-13.573-135.51-43.01-177.604-69.292-24.066-15.025-46.49-29.021-74.008-38.484-34.785-11.958-73.526-12.232-108.81-4.87-39.258 8.192-74.275 25.852-94.832 47.405l1.378 1.318c20.3-21.283 54.947-38.734 93.836-46.848 34.978-7.3 73.37-7.034 107.814 4.808 27.328 9.392 49.653 23.33 73.615 38.289 42.252 26.382 89.579 55.928 178.317 69.561 29.107 4.47 57.737 3.727 89.027 2.916 83.69-2.162 186.45-4.822 367.575 90.841l.889-1.692Z" clip-rule="evenodd"/>
    <path fill="#A7A7A7" fill-rule="evenodd" d="M628.129 284.417c-186.397-95.437-303.384-85.603-400.409-77.443-40.2 3.379-76.963 6.469-113.769 1.632-73.881-10.874-116.945-36.52-156.256-59.93-22.589-13.45-43.94-26.169-69.185-34.962l-.001.004c-36.47-12.796-73.653-14.4-106.753-7.946-36.123 7.044-67.409 23.699-87.641 45.916l1.407 1.283c19.96-21.919 50.873-38.359 86.591-45.324 32.8-6.395 69.638-4.802 105.772 7.871l.001.006c25.086 8.741 46.347 21.402 68.837 34.792 39.467 23.506 82.705 49.252 156.966 60.182l.014.003c37.013 4.865 73.873 1.767 114.177-1.623 96.774-8.135 213.467-17.947 399.381 77.243l.868-1.704Z" clip-rule="evenodd"/>
    <path fill="#A7A7A7" fill-rule="evenodd" d="M649.558 257.771c-191.983-95.526-322.098-78.791-431.896-64.666-49.284 6.336-94.466 12.149-139.254 6.999-59.552-8.201-98.54-30.13-135.114-50.704-21.021-11.825-41.25-23.205-64.165-31.31-38.203-13.645-73.737-16.629-104.6-11.076-32.996 5.939-60.655 21.632-80.549 44.483l1.44 1.257c19.611-22.529 46.891-37.998 79.443-43.858 30.55-5.498 65.749-2.532 103.629 10.998 22.746 8.045 42.914 19.39 63.867 31.177 36.729 20.658 75.881 42.677 135.805 50.928l.024.004c45.022 5.178 90.315-.652 139.721-7.006 109.529-14.086 239.332-30.781 430.801 64.485l.848-1.711Z" clip-rule="evenodd"/>
    <path fill="#A7A7A7" fill-rule="evenodd" d="M670.985 231.123c-198.011-95.949-340.682-72.56-462.954-52.516-58.477 9.584-112.279 18.406-165.165 12.991-45.44-5.554-80.454-23.904-114.43-41.712-19.314-10.121-38.296-20.068-58.689-27.417l.001-.005c-40.868-14.845-75.242-19.116-104.193-13.945-29.024 5.18-52.567 19.823-71.709 42.791l1.463 1.226c18.852-22.621 42.026-37.042 70.573-42.141 28.617-5.104 62.666-.861 103.213 13.87l.005.001c20.285 7.309 39.202 17.226 58.454 27.312 34.13 17.89 69.307 36.324 115.097 41.92l.018.003c53.149 5.437 107.066-3.402 165.666-13.008 122.003-19.995 264.353-43.331 461.823 52.354l.827-1.724Z" clip-rule="evenodd"/>
    <path fill="#A7A7A7" fill-rule="evenodd" d="M692.419 204.475c-204.332-96.598-359.14-66.768-493.656-40.85C131.02 176.676 68.431 188.738 7.33 183.093c-31.643-2.923-63.16-18.022-94.98-33.271-17.212-8.246-34.513-16.537-51.987-22.982-42.238-15.583-74.353-21.407-100.678-17.409-26.418 4.014-46.955 17.886-65.97 41.692l1.488 1.19c18.709-23.418 38.871-37.063 64.762-40.998 25.986-3.946 57.801 1.852 99.743 17.32 17.413 6.426 34.663 14.689 51.822 22.913 31.975 15.321 63.645 30.498 95.616 33.449 61.373 5.67 124.09-6.416 191.979-19.495 134.231-25.863 288.71-55.63 492.481 40.702l.813-1.729Z" clip-rule="evenodd"/>
    <path fill="#A7A7A7" fill-rule="evenodd" d="m363.891 139.481-45.435 81.312 1.964 1.096 45.431-81.305-1.96-1.103Zm-262.509 40.313-20.12 21.397 1.631 1.544 20.125-21.392-1.636-1.549Z" clip-rule="evenodd"/>
  </g>
  <defs>
    <clipPath id="a">
      <path fill="#fff" d="M514.504 93.577-72.08 0l-32.926 206.39 586.583 93.577z"/>
    </clipPath>
    <clipPath id="b">
      <path fill="#fff" d="M534.452-31.468-52.13-125.046-218.871 920.158l586.582 93.577z"/>
    </clipPath>
  </defs>
</svg>
